<?xml version="1.0" standalone="no"?>
<!DOCTYPE svg PUBLIC "-//W3C//DTD SVG 20010904//EN"
 "http://www.w3.org/TR/2001/REC-SVG-20010904/DTD/svg10.dtd">
<svg version="1.0" xmlns="http://www.w3.org/2000/svg"
 width="1099.000000pt" height="875.000000pt" viewBox="0 0 1099.000000 875.000000"
 preserveAspectRatio="xMidYMid meet">

<g transform="translate(0.000000,875.000000) scale(0.100000,-0.100000)"
fill="#000000" stroke="none">
<path d="M5800 8245 c-8 -2 -48 -9 -89 -16 -100 -17 -170 -64 -245 -164 -84
-111 -123 -197 -166 -368 -79 -305 -110 -483 -189 -1075 -11 -79 -21 -146 -24
-148 -2 -3 -33 11 -68 30 -173 94 -483 127 -854 91 -82 -8 -186 -15 -230 -15
-101 0 -289 -31 -423 -68 -56 -16 -104 -27 -106 -23 -2 3 -18 58 -36 121 -41
146 -83 238 -156 340 -41 58 -74 91 -113 115 -34 21 -77 64 -117 114 -66 84
-161 167 -229 201 -70 34 -230 63 -310 55 -156 -14 -517 -110 -627 -166 -162
-82 -415 -464 -577 -871 -352 -886 -571 -2099 -573 -3178 0 -305 18 -653 42
-821 80 -550 152 -864 265 -1154 130 -336 279 -532 482 -634 122 -61 200 -64
407 -16 623 145 641 154 780 385 68 113 91 164 143 315 67 192 117 367 183
640 23 93 43 171 45 173 2 3 36 -3 75 -13 57 -14 105 -17 254 -14 l185 4 -5
-25 c-16 -91 -74 -546 -74 -582 0 -62 24 -144 55 -183 42 -56 90 -86 172 -107
71 -18 99 -20 308 -15 257 6 315 16 401 69 56 34 105 97 118 151 l6 27 38 -25
c71 -46 185 -66 422 -72 193 -4 225 -3 308 16 52 11 109 30 128 41 52 33 103
99 120 155 19 68 50 277 70 489 9 94 18 172 19 174 1 1 58 9 126 18 125 15
334 55 399 75 19 7 56 26 81 44 l46 33 12 -67 c7 -36 39 -194 72 -351 33 -157
85 -406 115 -555 30 -148 70 -342 89 -430 19 -88 39 -188 46 -223 15 -79 53
-138 118 -180 71 -46 159 -64 252 -52 41 5 160 10 264 10 120 0 210 5 246 13
94 23 185 101 224 193 36 85 63 262 90 589 7 90 55 853 55 883 0 18 6 22 30
22 51 0 342 60 388 80 24 11 55 28 69 40 14 11 29 20 33 20 4 0 12 -33 19 -73
7 -39 35 -178 63 -307 27 -129 85 -408 129 -620 43 -212 85 -412 94 -445 8
-33 15 -75 15 -93 0 -67 31 -160 67 -202 73 -85 198 -128 320 -110 37 5 155
10 262 10 228 0 290 12 366 70 97 73 141 186 169 432 14 124 37 411 51 643 3
55 8 127 10 160 3 33 10 143 15 245 45 784 156 1892 295 2940 24 184 51 391
60 460 9 69 39 280 66 470 27 190 63 437 79 550 58 407 110 809 131 1017 20
202 21 216 5 278 -58 232 -251 278 -711 168 -125 -30 -162 -43 -227 -85 -60
-38 -102 -101 -116 -175 -6 -33 -14 -232 -17 -458 -3 -220 -7 -420 -10 -445
-2 -25 -9 -106 -15 -180 -37 -460 -82 -879 -210 -1960 -39 -327 -78 -664 -87
-748 -9 -84 -20 -149 -24 -145 -9 10 -35 384 -50 728 -11 232 -7 1292 5 1370
3 17 7 98 10 180 10 238 25 446 48 635 18 155 24 182 53 240 48 95 61 166 46
238 -37 166 -166 241 -396 228 -104 -6 -314 -35 -398 -55 -30 -7 -37 -6 -34 3
3 7 13 95 23 195 15 153 16 194 6 254 -35 204 -203 275 -520 221 -143 -24
-319 -70 -379 -99 -65 -32 -139 -113 -154 -168 -7 -27 -13 -166 -14 -382 -2
-187 -5 -367 -9 -400 -3 -33 -10 -134 -16 -225 -21 -323 -73 -852 -140 -1420
-11 -96 -25 -213 -31 -260 -5 -47 -23 -200 -40 -340 -17 -140 -37 -309 -44
-375 -8 -66 -25 -219 -39 -340 -14 -120 -26 -228 -26 -239 0 -11 -2 -17 -5
-15 -7 8 -34 348 -45 574 -35 737 -13 1751 51 2335 19 180 24 200 56 267 52
107 62 163 45 243 -37 167 -164 239 -397 226 -117 -7 -305 -34 -419 -61 -37
-9 -70 -15 -71 -13 -4 3 43 141 82 243 20 51 41 84 78 120 77 77 101 114 115
183 24 116 -17 224 -110 291 -46 33 -195 72 -340 90 -96 12 -287 22 -310 16z
m190 -285 c108 -10 290 -36 298 -44 1 -2 -22 -28 -52 -58 -76 -77 -121 -171
-207 -433 -127 -387 -299 -1291 -383 -2005 -37 -315 -181 -1819 -188 -1969 -3
-51 -5 -55 -33 -63 -44 -13 -422 -15 -434 -3 -6 6 -3 49 9 120 66 396 87 561
199 1575 65 579 87 766 181 1475 56 422 90 649 121 800 67 337 119 482 198
559 57 56 100 62 291 46z m2220 -262 c-1 -104 -70 -664 -156 -1253 -290 -2003
-422 -3191 -504 -4550 -52 -860 -77 -1073 -128 -1089 -9 -3 -100 -5 -202 -5
-102 0 -216 -4 -255 -10 -46 -7 -73 -7 -80 0 -11 11 -59 222 -111 484 -19 99
-60 295 -90 435 -200 931 -289 1522 -344 2280 -6 80 -13 177 -15 215 -12 163
-25 373 -25 414 0 135 -25 -52 -75 -572 -14 -144 -34 -341 -45 -437 -10 -96
-24 -238 -30 -315 -41 -515 -64 -708 -87 -730 -19 -19 -128 -42 -313 -66 -165
-21 -217 -22 -213 -4 1 6 10 30 19 55 27 75 81 344 109 540 14 102 39 266 55
365 95 593 267 1972 304 2440 25 313 36 456 41 555 3 63 8 148 11 187 l6 73
37 10 c35 9 49 12 133 25 36 6 36 6 47 73 7 37 21 100 33 140 24 82 14 76 178
107 106 19 360 41 383 32 16 -6 15 -10 -7 -44 -14 -21 -34 -67 -46 -103 -26
-78 -64 -379 -79 -635 -6 -99 -13 -216 -16 -260 -11 -162 -25 -738 -25 -1010
0 -451 24 -947 66 -1355 43 -422 148 -1046 230 -1375 25 -99 56 -222 69 -273
12 -51 24 -95 27 -97 2 -3 12 53 21 123 9 70 35 258 56 417 69 501 146 1136
341 2805 122 1045 179 1785 167 2178 l-5 173 27 10 c110 42 290 77 409 78 l82
1 0 -32z m2110 19 c0 -7 -9 -100 -20 -207 -29 -282 -71 -596 -200 -1490 -212
-1474 -369 -2899 -430 -3915 -61 -1019 -80 -1213 -126 -1282 -14 -22 -18 -23
-207 -22 -105 1 -223 -4 -261 -9 -80 -13 -98 -6 -102 34 -1 16 -12 70 -23 119
-11 50 -41 191 -66 315 -25 124 -75 360 -110 525 -129 602 -194 973 -250 1420
-41 333 -84 806 -101 1125 -4 69 -8 132 -10 140 -1 8 -3 52 -3 98 -1 94 -16
109 -24 25 -50 -504 -91 -901 -102 -996 -8 -65 -22 -214 -30 -330 -20 -273
-52 -589 -66 -650 -7 -28 -19 -52 -30 -58 -52 -27 -467 -90 -504 -75 -12 4
-15 12 -10 24 44 103 86 301 140 672 25 168 52 343 60 390 32 190 154 1124
209 1595 54 465 65 565 81 780 9 110 20 250 25 310 6 61 13 186 17 279 l6 168
31 13 c17 7 65 18 106 24 41 7 75 13 75 14 1 1 8 36 15 77 19 111 48 198 68
204 128 40 532 84 532 58 0 -5 -13 -33 -30 -63 -39 -73 -55 -142 -79 -339 -45
-370 -72 -1004 -70 -1640 2 -809 37 -1292 145 -1985 54 -348 103 -586 184
-896 28 -105 50 -200 50 -210 0 -11 5 -19 10 -19 6 0 10 13 10 28 0 15 24 208
54 428 64 468 115 872 191 1514 209 1776 220 1871 260 2280 13 140 31 354 39
475 8 121 18 265 22 320 4 55 8 226 8 380 l1 280 70 23 c152 50 445 82 445 49z
m-7693 -580 c45 -24 148 -130 213 -220 48 -67 59 -76 86 -77 28 0 37 -8 72
-62 55 -85 84 -153 120 -283 70 -255 91 -424 99 -805 7 -311 1 -391 -68 -1015
-53 -480 -69 -602 -123 -925 -18 -113 -32 -207 -30 -209 6 -6 142 128 195 191
46 54 38 8 119 713 64 553 101 853 146 1170 42 294 64 476 64 526 0 33 -3 37
-32 43 -45 9 -27 22 75 56 121 41 234 58 457 70 107 6 256 15 330 19 346 22
565 -36 660 -174 71 -103 87 -225 50 -371 -21 -85 -177 -413 -277 -583 -141
-241 -352 -540 -647 -920 -84 -108 -193 -250 -243 -316 -49 -66 -117 -153
-151 -194 -52 -63 -82 -124 -68 -138 2 -2 71 8 152 22 82 15 216 30 299 34
201 10 446 3 463 -13 7 -7 15 -29 19 -50 6 -39 -2 -73 -63 -268 -139 -442
-272 -1226 -300 -1763 -3 -66 -8 -122 -9 -123 -10 -11 -164 -21 -318 -22 -156
0 -178 2 -184 16 -7 19 93 772 168 1264 40 262 112 648 146 789 4 18 2 23 -8
19 -10 -3 -274 -69 -375 -94 -15 -3 -25 -221 -33 -693 l-6 -365 -30 -8 c-16
-5 -124 -11 -240 -14 -168 -5 -213 -3 -226 7 -18 16 -17 36 26 571 32 387 32
358 -5 358 -16 0 -63 7 -105 17 -41 9 -78 13 -82 10 -3 -4 -30 -149 -59 -323
-111 -660 -238 -1204 -372 -1595 -55 -159 -63 -177 -130 -289 -65 -109 -74
-117 -184 -151 -133 -41 -515 -129 -558 -129 -111 1 -251 135 -350 335 -308
623 -433 1727 -324 2865 87 915 302 1813 577 2412 89 193 251 451 333 529 50
47 112 74 304 130 175 51 357 62 427 26z m2789 -4130 c8 -7 1 -77 -35 -352
-11 -82 -32 -271 -46 -420 -37 -396 -64 -597 -81 -615 -28 -28 -516 -22 -545
7 -5 5 0 32 11 60 33 87 114 517 185 978 26 165 50 310 55 322 7 16 20 23 47
26 63 7 401 3 409 -6z"/>
<path d="M2222 6803 c-51 -65 -158 -234 -211 -333 -104 -197 -279 -625 -335
-825 -14 -49 -39 -139 -57 -200 -204 -720 -302 -1463 -286 -2175 3 -146 10
-301 16 -345 5 -44 15 -129 21 -190 24 -239 101 -662 155 -850 85 -293 185
-514 306 -675 84 -111 90 -113 134 -47 110 165 299 702 424 1202 134 536 301
1466 351 1955 101 987 78 1519 -86 1988 -62 176 -84 226 -126 277 -26 31 -35
35 -79 35 l-49 0 -26 53 c-34 67 -102 167 -114 167 -4 0 -22 -17 -38 -37z
m148 -1780 c0 -47 -55 -497 -95 -776 -54 -379 -89 -689 -110 -982 -9 -121 -19
-231 -23 -244 -5 -16 -20 -28 -45 -37 -61 -21 -277 -63 -342 -66 l-60 -3 3 70
c1 39 14 183 27 320 38 383 63 674 75 850 6 88 13 183 16 210 3 28 7 167 9
309 3 198 7 261 17 267 22 12 158 46 268 68 58 11 114 22 125 24 11 3 46 5 78
6 48 1 57 -2 57 -16z"/>
<path d="M4135 6196 c-36 -11 -42 -18 -58 -67 -61 -184 -189 -763 -252 -1139
-38 -230 -78 -533 -73 -558 2 -10 66 72 159 203 278 391 388 572 508 838 106
233 125 294 125 402 2 176 -76 274 -251 320 -67 17 -103 18 -158 1z"/>
</g>
</svg>
