<svg width="1466" height="1167" viewBox="0 0 1466 1167" fill="none" xmlns="http://www.w3.org/2000/svg">
<path d="M773.333 67.3331C772.267 67.5998 766.933 68.5331 761.467 69.4664C748.133 71.7331 738.8 77.9998 728.8 91.3331C717.6 106.133 712.4 117.6 706.667 140.4C696.133 181.066 692 204.8 681.467 283.733C680 294.266 678.667 303.2 678.267 303.466C678 303.866 673.867 302 669.2 299.466C646.133 286.933 604.8 282.533 555.333 287.333C544.4 288.4 530.533 289.333 524.667 289.333C511.2 289.333 486.133 293.466 468.267 298.4C460.8 300.533 454.4 302 454.133 301.466C453.867 301.066 451.733 293.733 449.333 285.333C443.867 265.866 438.267 253.6 428.533 240C423.067 232.266 418.667 227.866 413.467 224.666C408.933 221.866 403.2 216.133 397.867 209.466C389.067 198.266 376.4 187.2 367.333 182.666C358 178.133 336.667 174.266 326 175.333C305.2 177.2 257.067 190 242.4 197.466C220.8 208.4 187.067 259.333 165.467 313.6C118.533 431.733 89.3333 593.466 89.0667 737.333C89.0667 778 91.4667 824.4 94.6667 846.8C105.333 920.133 114.933 962 130 1000.67C147.333 1045.47 167.2 1071.6 194.267 1085.2C210.533 1093.33 220.933 1093.73 248.533 1087.33C331.6 1068 334 1066.8 352.533 1036C361.6 1020.93 364.667 1014.13 371.6 994C380.533 968.4 387.2 945.066 396 908.666C399.067 896.266 401.733 885.866 402 885.6C402.267 885.2 406.8 886 412 887.333C419.6 889.2 426 889.6 445.867 889.2L470.533 888.666L469.867 892C467.733 904.133 460 964.8 460 969.6C460 977.866 463.2 988.8 467.333 994C472.933 1001.47 479.333 1005.47 490.267 1008.27C499.733 1010.67 503.467 1010.93 531.333 1010.27C565.6 1009.47 573.333 1008.13 584.8 1001.07C592.267 996.533 598.8 988.133 600.533 980.933L601.333 977.333L606.4 980.666C615.867 986.8 631.067 989.466 662.667 990.266C688.4 990.8 692.667 990.666 703.733 988.133C710.667 986.666 718.267 984.133 720.8 982.666C727.733 978.266 734.533 969.466 736.8 962C739.333 952.933 743.467 925.066 746.133 896.8C747.333 884.266 748.533 873.866 748.667 873.6C748.8 873.466 756.4 872.4 765.467 871.2C782.133 869.2 810 863.866 818.667 861.2C821.2 860.266 826.133 857.733 829.467 855.333L835.6 850.933L837.2 859.866C838.133 864.666 842.4 885.733 846.8 906.666C851.2 927.6 858.133 960.8 862.133 980.666C866.133 1000.4 871.467 1026.27 874 1038C876.533 1049.73 879.2 1063.07 880.133 1067.73C882.133 1078.27 887.2 1086.13 895.867 1091.73C905.333 1097.87 917.067 1100.27 929.467 1098.67C934.933 1098 950.8 1097.33 964.667 1097.33C980.667 1097.33 992.667 1096.67 997.467 1095.6C1010 1092.53 1022.13 1082.13 1027.33 1069.87C1032.13 1058.53 1035.73 1034.93 1039.33 991.333C1040.27 979.333 1046.67 877.6 1046.67 873.6C1046.67 871.2 1047.47 870.666 1050.67 870.666C1057.47 870.666 1096.27 862.666 1102.4 860C1105.6 858.533 1109.73 856.266 1111.6 854.666C1113.47 853.2 1115.47 852 1116 852C1116.53 852 1117.6 856.4 1118.53 861.733C1119.47 866.933 1123.2 885.466 1126.93 902.666C1130.53 919.866 1138.27 957.066 1144.13 985.333C1149.87 1013.6 1155.47 1040.27 1156.67 1044.67C1157.73 1049.07 1158.67 1054.67 1158.67 1057.07C1158.67 1066 1162.8 1078.4 1167.6 1084C1177.33 1095.33 1194 1101.07 1210.27 1098.67C1215.2 1098 1230.93 1097.33 1245.2 1097.33C1275.6 1097.33 1283.87 1095.73 1294 1088C1306.93 1078.27 1312.8 1063.2 1316.53 1030.4C1318.4 1013.87 1321.47 975.6 1323.33 944.666C1323.73 937.333 1324.4 927.733 1324.67 923.333C1325.07 918.933 1326 904.266 1326.67 890.666C1332.67 786.133 1347.47 638.4 1366 498.666C1369.2 474.133 1372.8 446.533 1374 437.333C1375.2 428.133 1379.2 400 1382.8 374.666C1386.4 349.333 1391.2 316.4 1393.33 301.333C1401.07 247.066 1408 193.466 1410.8 165.733C1413.47 138.8 1413.6 136.933 1411.47 128.666C1403.73 97.7331 1378 91.5998 1316.67 106.266C1300 110.266 1295.07 112 1286.4 117.6C1278.4 122.666 1272.8 131.066 1270.93 140.933C1270.13 145.333 1269.07 171.866 1268.67 202C1268.27 231.333 1267.73 258 1267.33 261.333C1267.07 264.666 1266.13 275.466 1265.33 285.333C1260.4 346.666 1254.4 402.533 1237.33 546.666C1232.13 590.266 1226.93 635.2 1225.73 646.4C1224.53 657.6 1223.07 666.266 1222.53 665.733C1221.33 664.4 1217.87 614.533 1215.87 568.666C1214.4 537.733 1214.93 396.4 1216.53 386C1216.93 383.733 1217.47 372.933 1217.87 362C1219.2 330.266 1221.2 302.533 1224.27 277.333C1226.67 256.666 1227.47 253.066 1231.33 245.333C1237.73 232.666 1239.47 223.2 1237.47 213.6C1232.53 191.466 1215.33 181.466 1184.67 183.2C1170.8 184 1142.8 187.866 1131.6 190.533C1127.6 191.466 1126.67 191.333 1127.07 190.133C1127.47 189.2 1128.8 177.466 1130.13 164.133C1132.13 143.733 1132.27 138.266 1130.93 130.266C1126.27 103.066 1103.87 93.5998 1061.6 100.8C1042.53 104 1019.07 110.133 1011.07 114C1002.4 118.266 992.533 129.066 990.533 136.4C989.6 140 988.8 158.533 988.667 187.333C988.4 212.266 988 236.266 987.467 240.666C987.067 245.066 986.133 258.533 985.333 270.666C982.533 313.733 975.6 384.266 966.667 460C965.2 472.8 963.333 488.4 962.533 494.666C961.867 500.933 959.467 521.333 957.2 540C954.933 558.666 952.267 581.2 951.333 590C950.267 598.8 948 619.2 946.133 635.333C944.267 651.333 942.667 665.733 942.667 667.2C942.667 668.666 942.4 669.466 942 669.2C941.067 668.133 937.467 622.8 936 592.666C931.333 494.4 934.267 359.2 942.8 281.333C945.333 257.333 946 254.666 950.267 245.733C957.2 231.466 958.533 224 956.267 213.333C951.333 191.066 934.4 181.466 903.333 183.2C887.733 184.133 862.667 187.733 847.467 191.333C842.533 192.533 838.133 193.333 838 193.066C837.467 192.666 843.733 174.266 848.933 160.666C851.6 153.866 854.4 149.466 859.333 144.666C869.6 134.4 872.8 129.466 874.667 120.266C877.867 104.8 872.4 90.3998 860 81.4664C853.867 77.0664 834 71.8664 814.667 69.4664C801.867 67.8664 776.4 66.5331 773.333 67.3331ZM798.667 105.333C813.067 106.666 837.333 110.133 838.4 111.2C838.533 111.466 835.467 114.933 831.467 118.933C821.333 129.2 815.333 141.733 803.867 176.666C786.933 228.266 764 348.8 752.8 444C747.867 486 728.667 686.533 727.733 706.533C727.333 713.333 727.067 713.866 723.333 714.933C717.467 716.666 667.067 716.933 665.467 715.333C664.667 714.533 665.067 708.8 666.667 699.333C675.467 646.533 678.267 624.533 693.2 489.333C701.867 412.133 704.8 387.2 717.333 292.666C724.8 236.4 729.333 206.133 733.467 186C742.4 141.066 749.333 121.733 759.867 111.466C767.467 104 773.2 103.2 798.667 105.333ZM1094.67 140.266C1094.53 154.133 1085.33 228.8 1073.87 307.333C1035.2 574.4 1017.6 732.8 1006.67 914C999.733 1028.67 996.4 1057.07 989.6 1059.2C988.4 1059.6 976.267 1059.87 962.667 1059.87C949.067 1059.87 933.867 1060.4 928.667 1061.2C922.533 1062.13 918.933 1062.13 918 1061.2C916.533 1059.73 910.133 1031.6 903.2 996.666C900.667 983.466 895.2 957.333 891.2 938.666C864.533 814.533 852.667 735.733 845.333 634.666C844.533 624 843.6 611.066 843.333 606C841.733 584.266 840 556.266 840 550.8C840 532.8 836.667 557.733 830 627.066C828.133 646.266 825.467 672.533 824 685.333C822.667 698.133 820.8 717.066 820 727.333C814.533 796 811.467 821.733 808.4 824.666C805.867 827.2 791.333 830.266 766.667 833.466C744.667 836.266 737.733 836.4 738.267 834C738.4 833.2 739.6 830 740.8 826.666C744.4 816.666 751.6 780.8 755.333 754.666C757.2 741.066 760.533 719.2 762.667 706C775.333 626.933 798.267 443.066 803.2 380.666C806.533 338.933 808 319.866 808.667 306.666C809.067 298.266 809.733 286.933 810.133 281.733L810.933 272L815.867 270.666C820.533 269.466 822.4 269.066 833.6 267.333C838.4 266.533 838.4 266.533 839.867 257.6C840.8 252.666 842.667 244.266 844.267 238.933C847.467 228 846.133 228.8 868 224.666C882.133 222.133 916 219.2 919.067 220.4C921.2 221.2 921.067 221.733 918.133 226.266C916.267 229.066 913.6 235.2 912 240C908.533 250.4 903.467 290.533 901.467 324.666C900.667 337.866 899.733 353.466 899.333 359.333C897.867 380.933 896 457.733 896 494C896 554.133 899.2 620.266 904.8 674.666C910.533 730.933 924.533 814.133 935.467 858C938.8 871.2 942.933 887.6 944.667 894.4C946.267 901.2 947.867 907.066 948.267 907.333C948.533 907.733 949.867 900.266 951.067 890.933C952.267 881.6 955.733 856.533 958.533 835.333C967.733 768.533 978 683.866 1004 461.333C1020.27 322 1027.87 223.333 1026.27 170.933L1025.6 147.866L1029.2 146.533C1043.87 140.933 1067.87 136.266 1083.73 136.133L1094.67 136V140.266ZM1376 137.733C1376 138.666 1374.8 151.066 1373.33 165.333C1369.47 202.933 1363.87 244.8 1346.67 364C1318.4 560.533 1297.47 750.533 1289.33 886C1281.2 1021.87 1278.67 1047.73 1272.53 1056.93C1270.67 1059.87 1270.13 1060 1244.93 1059.87C1230.93 1059.73 1215.2 1060.4 1210.13 1061.07C1199.47 1062.8 1197.07 1061.87 1196.53 1056.53C1196.4 1054.4 1194.93 1047.2 1193.47 1040.67C1192 1034 1188 1015.2 1184.67 998.666C1181.33 982.133 1174.67 950.666 1170 928.666C1152.8 848.4 1144.13 798.933 1136.67 739.333C1131.2 694.933 1125.47 631.866 1123.2 589.333C1122.67 580.133 1122.13 571.733 1121.87 570.666C1121.73 569.6 1121.47 563.733 1121.47 557.6C1121.33 545.066 1119.33 543.066 1118.27 554.266C1111.6 621.466 1106.13 674.4 1104.67 687.066C1103.6 695.733 1101.73 715.6 1100.67 731.066C1098 767.466 1093.73 809.6 1091.87 817.733C1090.93 821.466 1089.33 824.666 1087.87 825.466C1080.93 829.066 1025.6 837.466 1020.67 835.466C1019.07 834.933 1018.67 833.866 1019.33 832.266C1025.2 818.533 1030.8 792.133 1038 742.666C1041.33 720.266 1044.93 696.933 1046 690.666C1050.27 665.333 1066.53 540.8 1073.87 478C1081.07 416 1082.53 402.666 1084.67 374C1085.87 359.333 1087.33 340.666 1088 332.666C1088.8 324.533 1089.73 307.866 1090.27 295.466L1091.07 273.066L1095.2 271.333C1097.47 270.4 1103.87 268.933 1109.33 268.133C1114.8 267.2 1119.33 266.4 1119.33 266.266C1119.47 266.133 1120.4 261.466 1121.33 256C1123.87 241.2 1127.73 229.6 1130.4 228.8C1147.47 223.466 1201.33 217.6 1201.33 221.066C1201.33 221.733 1199.6 225.466 1197.33 229.466C1192.13 239.2 1190 248.4 1186.8 274.666C1180.8 324 1177.2 408.533 1177.47 493.333C1177.73 601.2 1182.4 665.6 1196.8 758C1204 804.4 1210.53 836.133 1221.33 877.466C1225.07 891.466 1228 904.133 1228 905.466C1228 906.933 1228.67 908 1229.33 908C1230.13 908 1230.67 906.266 1230.67 904.266C1230.67 902.266 1233.87 876.533 1237.87 847.2C1246.4 784.8 1253.2 730.933 1263.33 645.333C1291.2 408.533 1292.67 395.866 1298 341.333C1299.73 322.666 1302.13 294.133 1303.2 278C1304.27 261.866 1305.6 242.666 1306.13 235.333C1306.67 228 1307.2 205.2 1307.2 184.666L1307.33 147.333L1316.67 144.266C1336.93 137.6 1376 133.333 1376 137.733ZM350.267 215.066C356.267 218.266 370 232.4 378.667 244.4C385.067 253.333 386.533 254.533 390.133 254.666C393.867 254.666 395.067 255.733 399.733 262.933C407.067 274.266 410.933 283.333 415.733 300.666C425.067 334.666 427.867 357.2 428.933 408C429.867 449.466 429.067 460.133 419.867 543.333C412.8 607.333 410.667 623.6 403.467 666.666C401.067 681.733 399.2 694.266 399.467 694.533C400.267 695.333 418.4 677.466 425.467 669.066C431.6 661.866 430.533 668 441.333 574C449.867 500.266 454.8 460.266 460.8 418C466.4 378.8 469.333 354.533 469.333 347.866C469.333 343.466 468.933 342.933 465.067 342.133C459.067 340.933 461.467 339.2 475.067 334.666C491.2 329.2 506.267 326.933 536 325.333C550.267 324.533 570.133 323.333 580 322.8C626.133 319.866 655.333 327.6 668 346C677.467 359.733 679.6 376 674.667 395.466C671.867 406.8 651.067 450.533 637.733 473.2C618.933 505.333 590.8 545.2 551.467 595.866C540.267 610.266 525.733 629.2 519.067 638C512.533 646.8 503.467 658.4 498.933 663.866C492 672.266 488 680.4 489.867 682.266C490.133 682.533 499.333 681.2 510.133 679.333C521.067 677.333 538.933 675.333 550 674.8C576.8 673.466 609.467 674.4 611.733 676.533C612.667 677.466 613.733 680.4 614.267 683.2C615.067 688.4 614 692.933 605.867 718.933C587.333 777.866 569.6 882.4 565.867 954C565.467 962.8 564.8 970.266 564.667 970.4C563.333 971.866 542.8 973.2 522.267 973.333C501.467 973.333 498.533 973.066 497.733 971.2C496.8 968.666 510.133 868.266 520.133 802.666C525.467 767.733 535.067 716.266 539.6 697.466C540.133 695.066 539.867 694.4 538.533 694.933C537.2 695.333 502 704.133 488.533 707.466C486.533 707.866 485.2 736.933 484.133 799.866L483.333 848.533L479.333 849.6C477.2 850.266 462.8 851.066 447.333 851.466C424.933 852.133 418.933 851.866 417.2 850.533C414.8 848.4 414.933 845.733 420.667 774.4C424.933 722.8 424.933 726.666 420 726.666C417.867 726.666 411.6 725.733 406 724.4C400.533 723.2 395.6 722.666 395.067 723.066C394.667 723.6 391.067 742.933 387.2 766.133C372.4 854.133 355.467 926.666 337.6 978.8C330.267 1000 329.2 1002.4 320.267 1017.33C311.6 1031.87 310.4 1032.93 295.733 1037.47C278 1042.93 227.067 1054.67 221.333 1054.67C206.533 1054.53 187.867 1036.67 174.667 1010C133.6 926.933 116.933 779.733 131.467 628C143.067 506 171.733 386.266 208.4 306.4C220.267 280.666 241.867 246.266 252.8 235.866C259.467 229.6 267.733 226 293.333 218.533C316.667 211.733 340.933 210.266 350.267 215.066ZM722.133 765.733C723.2 766.666 722.267 776 717.467 812.666C716 823.6 713.2 848.8 711.333 868.666C706.4 921.466 702.8 948.266 700.533 950.666C696.8 954.4 631.733 953.6 627.867 949.733C627.2 949.066 627.867 945.466 629.333 941.733C633.733 930.133 644.533 872.8 654 811.333C657.467 789.333 660.667 770 661.333 768.4C662.267 766.266 664 765.333 667.6 764.933C676 764 721.067 764.533 722.133 765.733Z" fill="white"/>
<path d="M296.267 259.6C289.467 268.267 275.2 290.8 268.133 304C254.267 330.267 230.933 387.333 223.467 414C221.6 420.533 218.267 432.533 215.867 440.667C188.667 536.667 175.6 635.733 177.733 730.667C178.133 750.133 179.067 770.8 179.867 776.667C180.533 782.533 181.867 793.867 182.667 802C185.867 833.867 196.133 890.267 203.333 915.333C214.667 954.4 228 983.867 244.133 1005.33C255.333 1020.13 256.133 1020.4 262 1011.6C276.667 989.6 301.867 918 318.533 851.333C336.4 779.867 358.667 655.867 365.333 590.667C378.8 459.067 375.733 388.133 353.867 325.6C345.6 302.133 342.667 295.467 337.067 288.667C333.6 284.533 332.4 284 326.533 284H320L316.533 276.933C312 268 302.933 254.667 301.333 254.667C300.8 254.667 298.4 256.933 296.267 259.6ZM316 496.933C316 503.2 308.667 563.2 303.333 600.4C296.133 650.933 291.467 692.267 288.667 731.333C287.467 747.467 286.133 762.133 285.6 763.867C284.933 766 282.933 767.6 279.6 768.8C271.467 771.6 242.667 777.2 234 777.6L226 778L226.4 768.667C226.533 763.467 228.267 744.267 230 726C235.067 674.933 238.4 636.133 240 612.667C240.8 600.933 241.733 588.267 242.133 584.667C242.533 580.933 243.067 562.4 243.333 543.467C243.733 517.067 244.267 508.667 245.6 507.867C248.533 506.267 266.667 501.733 281.333 498.8C289.067 497.333 296.533 495.867 298 495.6C299.467 495.2 304.133 494.933 308.4 494.8C314.8 494.667 316 495.067 316 496.933Z" fill="white"/>
<path d="M551.333 340.533C546.533 342 545.733 342.933 543.6 349.466C535.467 374 518.4 451.2 510 501.333C504.933 532 499.6 572.4 500.267 575.733C500.533 577.066 509.067 566.133 521.467 548.666C558.533 496.533 573.2 472.4 589.2 436.933C603.333 405.866 605.867 397.733 605.867 383.333C606.133 359.866 595.733 346.8 572.4 340.666C563.467 338.4 558.667 338.266 551.333 340.533Z" fill="white"/>
</svg>
